<?xml version="1.0" encoding="UTF-8"?>
<svg
  id="Layer_1"
  xmlns="http://www.w3.org/2000/svg"
  xmlns:xlink="http://www.w3.org/1999/xlink"
  viewBox="0 0 2000 500"
  preserveAspectRatio="xMidYMid meet"
>
  <defs>
    <linearGradient
      id="linear-gradient"
      x1="244.38"
      y1="131.32"
      x2="242.52"
      y2="375.81"
      gradientUnits="userSpaceOnUse"
    >
      <stop offset="0" stop-color="#b1e457" />
      <stop offset="1" stop-color="#388161" />
    </linearGradient>
  </defs>

  <path
    d="M403.86,85.22v327.24c-44.69-11.38-89.37-22.77-134.06-34.15v-61.98c20.66,11.18,41.32,22.37,61.98,33.55v-134.28c-39.36,33.53-78.72,67.07-118.09,100.6-23.48-18.44-46.96-36.88-70.43-55.32v107.49c-20.24,15.47-40.48,30.94-60.72,46.42v-255.88c41.67,24.88,83.33,49.76,125,74.65,65.44-49.44,130.88-98.89,196.32-148.33Z"
    fill="url(#linear-gradient)"
  />

  <path
    d="M454.66,214.17h63.08l47.6,86.78,47.41-86.78h62.69v130.67h-38.79l1.96-100.89-57.99,100.89h-31.74l-57.01-100.89,1.18,100.89h-38.39v-130.67Z"
    fill="#fff"
  />
  <path
    d="M859.26,214.76c20.18,3.72,29.97,14.11,32.72,35.07.78,5.28,1.18,15.86,1.18,31.73,0,31.54-3.33,44.28-14.5,53.48-7.84,6.66-18.81,9.8-37.81,10.58-7.05.39-24.49.59-37.22.59-31.15,0-47.01-.59-54.85-2.15-14.5-2.55-22.92-8.03-27.82-17.63-5.09-9.6-6.27-19.2-6.27-47.8,0-21.94.39-27.43,2.75-36.24,3.72-13.91,11.36-21.35,26.05-25.67,10.97-3.13,22.92-3.92,57.4-3.92,37.61,0,49.17.4,58.38,1.96ZM761.7,249.44c-5.29,4.12-6.86,10.59-6.86,29.39s1.57,26.26,6.47,30.37c5.29,4.31,11.75,5.09,41.73,5.09,34.28,0,41.34-1.18,45.84-7.44,3.72-4.7,4.7-11.37,4.7-28.8,0-32.91-.59-33.3-49.56-33.3-29.19,0-37.22.97-42.32,4.69Z"
    fill="#fff"
  />
  <path
    d="M932.4,214.17h63.27l79.14,99.33-.98-99.33h37.61v130.67h-63.86l-77.97-98.34.98,98.34h-38.2v-130.67Z"
    fill="#fff"
  />
  <path
    d="M1295.47,214.17v29.59h-105.59v22.53h99.52v25.86h-99.52v23.12h106.96v29.58h-146.14v-130.67h144.77Z"
    fill="#fff"
  />
  <path
    d="M1394.26,246.5h-58.18v-32.33h156.13v32.33h-58.18v98.34h-39.77v-98.34Z"
    fill="#fff"
  />
  <path
    d="M1606.1,299.59l-74.64-85.41h50.73l44.08,54.07,43.69-54.07h49.76l-73.66,85.41v45.26h-39.96v-45.26Z"
    fill="#fff"
  />
  <path
    d="M1758.96,314.87l98.73-71.11h-96.19v-29.59h154.38v29.98l-99.91,71.11h101.48v29.58h-158.49v-29.97Z"
    fill="#fff"
  />
</svg>